<svg width="73" height="72" viewBox="0 0 73 72" fill="none" xmlns="http://www.w3.org/2000/svg">
<rect x="0.166992" width="72" height="72" rx="36" fill="black" fill-opacity="0.05"/>
<rect x="14.167" y="14" width="44" height="44" rx="22" fill="#BEBEBE"/>
<path d="M32.8169 44.5H29.875C29.2783 44.5 28.706 44.2629 28.284 43.841C27.8621 43.419 27.625 42.8467 27.625 42.25V28.75C27.625 28.1533 27.8621 27.581 28.284 27.159C28.706 26.7371 29.2783 26.5 29.875 26.5H38.875C39.4717 26.5 40.044 26.7371 40.466 27.159C40.8879 27.581 41.125 28.1533 41.125 28.75V37.75" stroke="black" stroke-width="1.33333" stroke-linecap="round" stroke-linejoin="round"/>
<path d="M37.75 43.375L40 45.625L44.5 41.125" stroke="black" stroke-width="1.33333" stroke-linecap="round" stroke-linejoin="round"/>
<path d="M32.125 31H36.625" stroke="black" stroke-width="1.33333" stroke-linecap="round" stroke-linejoin="round"/>
<path d="M32.125 35.5H34.375" stroke="black" stroke-width="1.33333" stroke-linecap="round" stroke-linejoin="round"/>
</svg>
