<svg width="97" height="68" viewBox="0 0 97 68" fill="none" xmlns="http://www.w3.org/2000/svg">
<path d="M0.00700599 44.9201C-0.0569683 44.3857 0.324328 43.9007 0.858666 43.8367L35.1853 39.772L43.7527 38.746L71.6816 35.4526C72.216 35.3886 72.7011 35.7699 72.7651 36.3042L73.3443 41.1419C73.4082 41.6762 73.0269 42.1613 72.4926 42.2253L43.6678 45.6259L30.2739 47.23L1.6696 50.6094C1.13524 50.6734 0.650177 50.2921 0.5862 49.7577L0.00700599 44.9201Z" fill="white"/>
<path d="M16.8399 14.9538C16.5804 14.4824 16.7523 13.8898 17.2237 13.6303L21.4923 11.2808C21.9638 11.0213 22.5564 11.1932 22.8159 11.6646L33.5142 30.5175C33.7737 30.989 33.6019 31.5816 33.1304 31.8411L28.8618 34.1906C28.3904 34.4501 27.7978 34.2782 27.5383 33.8068L16.8399 14.9538ZM36.3903 46.5505C36.1307 46.079 36.3026 45.4864 36.7741 45.2269L41.0427 42.8775C41.5141 42.618 42.1067 42.7898 42.3662 43.2613L43.6678 45.6259L53.3727 63.2572C53.6322 63.7287 53.4603 64.3212 52.9889 64.5807L48.7203 66.9302C48.2488 67.1897 47.6562 67.0179 47.3967 66.5464L37.5561 48.6686L36.3903 46.5505Z" fill="white"/>
<path d="M56.4732 8.75439C56.9778 8.94144 57.2352 9.50215 57.0482 10.0068L56.2015 12.2909L55.8624 13.1984C52.5113 22.0853 48.4517 30.6241 43.7527 38.746C41.7964 42.1274 39.7292 45.4366 37.5561 48.6686C34.7898 52.783 31.852 56.7722 28.7529 60.626C28.4467 61.0068 27.8837 61.0506 27.5205 60.7238L23.713 57.2987C23.3751 56.9948 23.3345 56.4797 23.6187 56.1251C25.9329 53.2371 28.1528 50.2705 30.2739 47.23C31.9754 44.7908 33.6134 42.304 35.1853 39.772C41.0038 30.3998 45.9177 20.4085 49.8055 9.92016L50.6525 7.63591C50.8396 7.13136 51.4003 6.87398 51.9049 7.06102L56.4732 8.75439Z" fill="white"/>
<path d="M76.696 16V4.8H78.536V16H76.696ZM73.352 6.56V4.8H81.88V6.56H73.352ZM88.1384 16L88.1544 15.664L92.7944 4.8H94.5704V5.136L89.9304 16H88.1384ZM83.0824 16V4.8H84.9224V16H83.0824ZM88.1544 16L83.4984 5.136V4.8H85.2904L89.9304 15.664V16H88.1544ZM93.1464 16V4.8H94.9864V16H93.1464Z" fill="white"/>
</svg>
