<svg width="105" height="54" viewBox="0 0 105 54" fill="none" xmlns="http://www.w3.org/2000/svg">
<path d="M8.35125 35V12.6H12.5113V35H8.35125ZM10.4633 26.488V22.616H17.4393C18.5486 22.616 19.4019 22.3493 19.9993 21.816C20.5966 21.2613 20.8953 20.504 20.8953 19.544H25.2153C25.2153 21.656 24.5539 23.3413 23.2313 24.6C21.9299 25.8587 20.1379 26.488 17.8553 26.488H10.4633ZM20.8953 19.544C20.8953 18.584 20.5966 17.8373 19.9993 17.304C19.4019 16.7493 18.5486 16.472 17.4393 16.472H10.4633V12.6H17.8553C20.1379 12.6 21.9299 13.2293 23.2313 14.488C24.5539 15.7467 25.2153 17.432 25.2153 19.544H20.8953ZM20.5753 35L15.6473 25.272L19.8393 24.248L25.2153 34.744V35H20.5753ZM33.3568 35.512C32.2474 35.512 31.2554 35.2987 30.3808 34.872C29.5274 34.4453 28.8554 33.848 28.3648 33.08C27.8741 32.312 27.6288 31.4373 27.6288 30.456C27.6288 28.8773 28.1621 27.6293 29.2288 26.712C30.3168 25.7733 31.8954 25.2187 33.9648 25.048L40.2688 24.504V27.96L34.5088 28.44C33.5914 28.5253 32.9408 28.7173 32.5568 29.016C32.1941 29.3147 32.0128 29.6987 32.0128 30.168C32.0128 30.6373 32.2368 31.0213 32.6848 31.32C33.1328 31.5973 33.6981 31.736 34.3808 31.736C35.1274 31.736 35.7994 31.544 36.3968 31.16C37.0154 30.776 37.5061 30.2853 37.8688 29.688C38.2314 29.0693 38.4128 28.4187 38.4128 27.736V25.08C38.4128 24.1627 38.0928 23.4053 37.4528 22.808C36.8128 22.2107 36.0021 21.912 35.0208 21.912C34.1034 21.912 33.3674 22.1467 32.8128 22.616C32.2581 23.064 31.9274 23.5653 31.8208 24.12H31.4688L27.8208 23.352C28.1408 21.9013 28.9301 20.6853 30.1888 19.704C31.4688 18.7227 33.0794 18.232 35.0208 18.232C37.3674 18.232 39.2128 18.8933 40.5568 20.216C41.9221 21.5387 42.6048 23.4053 42.6048 25.816V35H38.8608V30.264H40.4288C40.1728 31.2027 39.7034 32.0773 39.0208 32.888C38.3594 33.6773 37.5488 34.3173 36.5888 34.808C35.6288 35.2773 34.5514 35.512 33.3568 35.512ZM54.3045 35.512C52.8325 35.512 51.4992 35.1493 50.3045 34.424C49.1098 33.6773 48.1605 32.664 47.4565 31.384C46.7738 30.0827 46.4325 28.5893 46.4325 26.904C46.4325 25.1973 46.7738 23.6933 47.4565 22.392C48.1605 21.0907 49.1098 20.0773 50.3045 19.352C51.4992 18.6053 52.8325 18.232 54.3045 18.232C55.5418 18.232 56.6405 18.488 57.6005 19C58.5605 19.512 59.3498 20.1627 59.9685 20.952C60.5872 21.72 61.0032 22.5307 61.2165 23.384V30.424C61.0032 31.256 60.5872 32.0667 59.9685 32.856C59.3498 33.624 58.5605 34.264 57.6005 34.776C56.6405 35.2667 55.5418 35.512 54.3045 35.512ZM55.0725 31.672C55.9472 31.672 56.7045 31.4693 57.3445 31.064C57.9845 30.6587 58.4858 30.0933 58.8485 29.368C59.2112 28.6427 59.3925 27.8107 59.3925 26.872C59.3925 25.912 59.2112 25.08 58.8485 24.376C58.4858 23.6507 57.9845 23.0853 57.3445 22.68C56.7045 22.2747 55.9472 22.072 55.0725 22.072C54.2192 22.072 53.4618 22.2747 52.8005 22.68C52.1605 23.0853 51.6592 23.6507 51.2965 24.376C50.9338 25.08 50.7525 25.912 50.7525 26.872C50.7525 27.8107 50.9338 28.6427 51.2965 29.368C51.6592 30.0933 52.1605 30.6587 52.8005 31.064C53.4618 31.4693 54.2192 31.672 55.0725 31.672ZM59.5845 35V30.488L60.5445 26.872L59.2645 23.256V11.96L63.4885 11.448L63.5845 11.704V35H59.5845ZM73.4643 35.512C72.3549 35.512 71.3629 35.2987 70.4883 34.872C69.6349 34.4453 68.9629 33.848 68.4723 33.08C67.9816 32.312 67.7363 31.4373 67.7363 30.456C67.7363 28.8773 68.2696 27.6293 69.3363 26.712C70.4243 25.7733 72.0029 25.2187 74.0723 25.048L80.3763 24.504V27.96L74.6163 28.44C73.6989 28.5253 73.0483 28.7173 72.6643 29.016C72.3016 29.3147 72.1203 29.6987 72.1203 30.168C72.1203 30.6373 72.3443 31.0213 72.7923 31.32C73.2403 31.5973 73.8056 31.736 74.4883 31.736C75.2349 31.736 75.9069 31.544 76.5043 31.16C77.1229 30.776 77.6136 30.2853 77.9763 29.688C78.3389 29.0693 78.5203 28.4187 78.5203 27.736V25.08C78.5203 24.1627 78.2003 23.4053 77.5603 22.808C76.9203 22.2107 76.1096 21.912 75.1283 21.912C74.2109 21.912 73.4749 22.1467 72.9203 22.616C72.3656 23.064 72.0349 23.5653 71.9283 24.12H71.5763L67.9283 23.352C68.2483 21.9013 69.0376 20.6853 70.2963 19.704C71.5763 18.7227 73.1869 18.232 75.1283 18.232C77.4749 18.232 79.3203 18.8933 80.6643 20.216C82.0296 21.5387 82.7123 23.4053 82.7123 25.816V35H78.9683V30.264H80.5363C80.2803 31.2027 79.8109 32.0773 79.1283 32.888C78.4669 33.6773 77.6563 34.3173 76.6963 34.808C75.7363 35.2773 74.6589 35.512 73.4643 35.512ZM87.34 35V18.744H91.34V22.616L90.284 22.84C90.796 21.56 91.5747 20.5573 92.62 19.832C93.6653 19.1067 94.8707 18.744 96.236 18.744H97.74V22.552H95.596C94.7853 22.552 94.0813 22.7227 93.484 23.064C92.908 23.4053 92.46 23.9067 92.14 24.568C91.82 25.208 91.66 25.976 91.66 26.872V35H87.34Z" fill="white"/>
<rect x="67" y="41" width="27" height="13" rx="3" fill="#DBF1C0"/>
<path d="M72.5681 50V49.344H74.2881C74.6295 49.344 74.8881 49.256 75.0641 49.08C75.2401 48.8987 75.3281 48.648 75.3281 48.328C75.3281 48.024 75.2348 47.7867 75.0481 47.616C74.8615 47.44 74.6081 47.352 74.2881 47.352H72.5681V46.712H74.1521C74.3388 46.712 74.5015 46.6773 74.6401 46.608C74.7788 46.5333 74.8855 46.4347 74.9601 46.312C75.0348 46.1893 75.0721 46.0453 75.0721 45.88C75.0721 45.6347 74.9921 45.4373 74.8321 45.288C74.6775 45.1333 74.4508 45.056 74.1521 45.056H72.5681V44.4H74.1521C74.6641 44.4 75.0641 44.5387 75.3521 44.816C75.6401 45.088 75.7841 45.4373 75.7841 45.864C75.7841 46.0507 75.7388 46.2293 75.6481 46.4C75.5575 46.5707 75.4375 46.7147 75.2881 46.832C75.1388 46.9493 74.9708 47.032 74.7841 47.08V46.888C75.0188 46.92 75.2295 47.0053 75.4161 47.144C75.6081 47.2827 75.7601 47.456 75.8721 47.664C75.9895 47.872 76.0481 48.0987 76.0481 48.344C76.0481 48.8453 75.8935 49.248 75.5841 49.552C75.2801 49.8507 74.8535 50 74.3041 50H72.5681ZM72.1921 50V44.4H72.8721V50H72.1921ZM76.8134 50V44.4H77.4934V50H76.8134ZM77.1654 50V49.344H80.3894V50H77.1654ZM77.1654 47.496V46.832H80.2134V47.496H77.1654ZM77.1654 45.056V44.4H80.3894V45.056H77.1654ZM82.5433 50V44.4H83.2313V50H82.5433ZM80.8073 45.056V44.4H84.9593V45.056H80.8073ZM88.6719 50L86.6479 44.568L86.5919 44.4H87.2719L89.3999 49.936V50H88.6719ZM84.4639 50V49.936L86.5919 44.4H87.2719L87.2159 44.568L85.1919 50H84.4639ZM85.2879 48.56L85.5279 47.896H88.4159L88.6559 48.56H85.2879Z" fill="black"/>
</svg>
