<svg width="25" height="25" viewBox="0 0 25 25" fill="none" xmlns="http://www.w3.org/2000/svg">
<path d="M5.20801 13.5417C5.20801 14.4992 5.39661 15.4474 5.76305 16.3321C6.12949 17.2167 6.66659 18.0206 7.34369 18.6977C8.02078 19.3747 8.82461 19.9118 9.70927 20.2783C10.5939 20.6447 11.5421 20.8333 12.4997 20.8333C13.4572 20.8333 14.4054 20.6447 15.2901 20.2783C16.1747 19.9118 16.9786 19.3747 17.6557 18.6977C18.3328 18.0206 18.8699 17.2167 19.2363 16.3321C19.6027 15.4474 19.7913 14.4992 19.7913 13.5417C19.7913 12.5841 19.6027 11.6359 19.2363 10.7513C18.8699 9.8666 18.3328 9.06277 17.6557 8.38568C16.9786 7.70859 16.1747 7.17149 15.2901 6.80504C14.4054 6.4386 13.4572 6.25 12.4997 6.25C11.5421 6.25 10.5939 6.4386 9.70927 6.80504C8.82461 7.17149 8.02078 7.70859 7.34369 8.38568C6.66659 9.06277 6.12949 9.8666 5.76305 10.7513C5.39661 11.6359 5.20801 12.5841 5.20801 13.5417Z" stroke="black" stroke-width="1.33333" stroke-linecap="round" stroke-linejoin="round"/>
<path d="M12.5 10.4165V13.5415H14.5833" stroke="black" stroke-width="1.33333" stroke-linecap="round" stroke-linejoin="round"/>
<path d="M7.29134 4.1665L4.42676 6.24984" stroke="black" stroke-width="1.33333" stroke-linecap="round" stroke-linejoin="round"/>
<path d="M17.708 4.1665L20.5726 6.24984" stroke="black" stroke-width="1.33333" stroke-linecap="round" stroke-linejoin="round"/>
</svg>
