<svg width="21" height="21" viewBox="0 0 21 21" fill="none" xmlns="http://www.w3.org/2000/svg">
<path d="M19.2478 15.7472C19.2358 15.4786 19.1593 15.2169 19.0247 14.9842L11.9319 3.1419C11.7827 2.8956 11.5725 2.69193 11.3216 2.55058C11.0707 2.40922 10.7875 2.33496 10.4996 2.33496C10.2116 2.33496 9.92845 2.40922 9.67754 2.55058C9.42663 2.69193 9.21641 2.8956 9.06719 3.1419L8.15718 4.6609M6.85081 6.84228L1.97443 14.9833C1.82822 15.2365 1.75084 15.5236 1.75001 15.816C1.74917 16.1084 1.8249 16.3959 1.96966 16.6499C2.11443 16.904 2.32318 17.1157 2.57516 17.264C2.82714 17.4123 3.11356 17.4921 3.40593 17.4954H17.4996" stroke="black" stroke-width="1.33333" stroke-linecap="round" stroke-linejoin="round"/>
<path d="M10.5 14H10.5088" stroke="black" stroke-width="1.33333" stroke-linecap="round" stroke-linejoin="round"/>
<path d="M2.625 2.625L18.375 18.375" stroke="black" stroke-width="1.33333" stroke-linecap="round" stroke-linejoin="round"/>
<path d="M10.5 6.125V7" stroke="black" stroke-width="1.33333" stroke-linecap="round" stroke-linejoin="round"/>
</svg>
